<?xml version="1.0" encoding="UTF-8"?>
<!-- Created with Inkscape (http://www.inkscape.org/) -->
<svg width="1024" height="1024" version="1.1" viewBox="0 0 270.93 270.93" xmlns="http://www.w3.org/2000/svg">
<defs>
<clipPath id="clipPath3">
<path transform="translate(-800.65 -677.29)" d="m0 800h1300v-800h-1300z"/>
</clipPath>
<clipPath id="clipPath5">
<path transform="translate(-800.65 -677.29)" d="m0 800h1300v-800h-1300z"/>
</clipPath>
<clipPath id="clipPath7">
<path transform="translate(-805.62 -641.28)" d="m0 800h1300v-800h-1300z"/>
</clipPath>
<clipPath id="clipPath9">
<path transform="translate(-801.55 -677.21)" d="m0 800h1300v-800h-1300z"/>
</clipPath>
<clipPath id="clipPath11">
<path transform="translate(-802.03 -677.17)" d="m0 800h1300v-800h-1300z"/>
</clipPath>
<clipPath id="clipPath13">
<path transform="translate(-817.25 -665.18)" d="m0 800h1300v-800h-1300z"/>
</clipPath>
<clipPath id="clipPath15">
<path transform="translate(-736.84 -671.52)" d="m0 800h1300v-800h-1300z"/>
</clipPath>
<clipPath id="clipPath17">
<path transform="translate(-775.42 -677.79)" d="m0 800h1300v-800h-1300z"/>
</clipPath>
<clipPath id="clipPath19">
<path transform="translate(-729.6 -669.13)" d="m0 800h1300v-800h-1300z"/>
</clipPath>
<clipPath id="clipPath21">
<path transform="translate(-577.95 -479)" d="m0 800h1300v-800h-1300z"/>
</clipPath>
<clipPath id="clipPath23">
<path transform="translate(-745.71 -573.15)" d="m0 800h1300v-800h-1300z"/>
</clipPath>
<clipPath id="clipPath25">
<path transform="translate(-727.31 -577.42)" d="m0 800h1300v-800h-1300z"/>
</clipPath>
<clipPath id="clipPath27">
<path transform="translate(-746.62 -574.46)" d="m0 800h1300v-800h-1300z"/>
</clipPath>
<clipPath id="clipPath29">
<path transform="translate(-729.99 -599.66)" d="m0 800h1300v-800h-1300z"/>
</clipPath>
<clipPath id="clipPath31">
<path transform="translate(-752.12 -587.92)" d="m0 800h1300v-800h-1300z"/>
</clipPath>
<clipPath id="clipPath33">
<path transform="translate(-648.06 -474.88)" d="m0 800h1300v-800h-1300z"/>
</clipPath>
<clipPath id="clipPath35">
<path transform="translate(-757.42 -629.28)" d="m0 800h1300v-800h-1300z"/>
</clipPath>
<clipPath id="clipPath37">
<path transform="translate(-634.26 -520.13)" d="m0 800h1300v-800h-1300z"/>
</clipPath>
<clipPath id="clipPath39">
<path transform="translate(-652.56 -498.51)" d="m0 800h1300v-800h-1300z"/>
</clipPath>
<clipPath id="clipPath41">
<path transform="translate(-642.91 -472.2)" d="m0 800h1300v-800h-1300z"/>
</clipPath>
<clipPath id="clipPath43">
<path transform="translate(-659.93 -499.31)" d="m0 800h1300v-800h-1300z"/>
</clipPath>
<clipPath id="clipPath45">
<path transform="translate(-654.58 -505.11)" d="m0 800h1300v-800h-1300z"/>
</clipPath>
<clipPath id="clipPath47">
<path transform="translate(-667.95 -509.44)" d="m0 800h1300v-800h-1300z"/>
</clipPath>
<clipPath id="clipPath49">
<path transform="translate(-653.53 -478.09)" d="m0 800h1300v-800h-1300z"/>
</clipPath>
<clipPath id="clipPath51">
<path transform="translate(-691.25 -520.3)" d="m0 800h1300v-800h-1300z"/>
</clipPath>
<clipPath id="clipPath53">
<path transform="translate(-712.19 -535.05)" d="m0 800h1300v-800h-1300z"/>
</clipPath>
<clipPath id="clipPath55">
<path transform="translate(-713.75 -572.93)" d="m0 800h1300v-800h-1300z"/>
</clipPath>
<clipPath id="clipPath57">
<path transform="translate(-619.47 -540.73)" d="m0 800h1300v-800h-1300z"/>
</clipPath>
<clipPath id="clipPath59">
<path transform="translate(-623.18 -498.66)" d="m0 800h1300v-800h-1300z"/>
</clipPath>
<clipPath id="clipPath61">
<path transform="translate(-648.34 -484.65)" d="m0 800h1300v-800h-1300z"/>
</clipPath>
<clipPath id="clipPath63">
<path transform="translate(-603.57 -460.11)" d="m0 800h1300v-800h-1300z"/>
</clipPath>
<clipPath id="clipPath65">
<path transform="translate(-614.46 -446.67)" d="m0 800h1300v-800h-1300z"/>
</clipPath>
<clipPath id="clipPath67">
<path transform="translate(-629.08 -458.45)" d="m0 800h1300v-800h-1300z"/>
</clipPath>
<clipPath id="clipPath69">
<path transform="translate(-603.71 -460.95)" d="m0 800h1300v-800h-1300z"/>
</clipPath>
<clipPath id="clipPath71">
<path transform="translate(-602.4 -459.92)" d="m0 800h1300v-800h-1300z"/>
</clipPath>
<clipPath id="clipPath73">
<path transform="translate(-560.65 -425.85)" d="m0 800h1300v-800h-1300z"/>
</clipPath>
<clipPath id="clipPath75">
<path transform="translate(-577.95 -479)" d="m0 800h1300v-800h-1300z"/>
</clipPath>
<clipPath id="clipPath77">
<path transform="translate(-603.71 -460.95)" d="m0 800h1300v-800h-1300z"/>
</clipPath>
<clipPath id="clipPath79">
<path transform="translate(-530.36 -429.96)" d="m0 800h1300v-800h-1300z"/>
</clipPath>
<clipPath id="clipPath81">
<path transform="translate(-549.1 -458.1)" d="m0 800h1300v-800h-1300z"/>
</clipPath>
<clipPath id="clipPath83">
<path transform="translate(-579.36 -497.42)" d="m0 800h1300v-800h-1300z"/>
</clipPath>
<clipPath id="clipPath85">
<path transform="translate(-605.21 -526.31)" d="m0 800h1300v-800h-1300z"/>
</clipPath>
<clipPath id="clipPath87">
<path transform="translate(-712.16 -611.88)" d="m0 800h1300v-800h-1300z"/>
</clipPath>
<clipPath id="clipPath89">
<path transform="translate(-674.08 -569.12)" d="m0 800h1300v-800h-1300z"/>
</clipPath>
<clipPath id="clipPath91">
<path transform="translate(-702.71 -566.09)" d="m0 800h1300v-800h-1300z"/>
</clipPath>
<clipPath id="clipPath93">
<path transform="translate(-713.6 -616.21)" d="m0 800h1300v-800h-1300z"/>
</clipPath>
<clipPath id="clipPath95">
<path transform="translate(-710.23 -567.12)" d="m0 800h1300v-800h-1300z"/>
</clipPath>
<clipPath id="clipPath97">
<path transform="translate(-712.16 -611.88)" d="m0 800h1300v-800h-1300z"/>
</clipPath>
<clipPath id="clipPath99">
<path transform="translate(-729.99 -599.66)" d="m0 800h1300v-800h-1300z"/>
</clipPath>
<clipPath id="clipPath101">
<path transform="translate(-639.38 -559.31)" d="m0 800h1300v-800h-1300z"/>
</clipPath>
<clipPath id="clipPath103">
<path transform="translate(-674.08 -569.12)" d="m0 800h1300v-800h-1300z"/>
</clipPath>
<clipPath id="clipPath105">
<path transform="translate(-680.11 -592.68)" d="m0 800h1300v-800h-1300z"/>
</clipPath>
<clipPath id="clipPath107">
<path transform="translate(-693.76 -649.41)" d="m0 800h1300v-800h-1300z"/>
</clipPath>
<clipPath id="clipPath109">
<path transform="translate(-552.43 -463.56)" d="m0 800h1300v-800h-1300z"/>
</clipPath>
<clipPath id="clipPath111">
<path transform="translate(-498.09 -411.29)" d="m0 800h1300v-800h-1300z"/>
</clipPath>
<clipPath id="clipPath113">
<path transform="translate(-507.22 -424.43)" d="m0 800h1300v-800h-1300z"/>
</clipPath>
<clipPath id="clipPath116">
<path transform="matrix(1.3333 0 0 -1.3333 0 1066.7)" d="m0 800h1300v-800h-1300z"/>
</clipPath>
<clipPath id="clipPath114">
<path transform="translate(-481.41 -387.26)" d="m481.41 411.29h16.684v-24.338h-16.684z"/>
</clipPath>
<clipPath id="clipPath118">
<path transform="translate(-540.05 -493.84)" d="m0 800h1300v-800h-1300z"/>
</clipPath>
<clipPath id="clipPath120">
<path transform="translate(-510.73 -464.72)" d="m0 800h1300v-800h-1300z"/>
</clipPath>
<clipPath id="clipPath122">
<path transform="translate(-703.46 -656.29)" d="m0 800h1300v-800h-1300z"/>
</clipPath>
<clipPath id="clipPath124">
<path transform="translate(-637.92 -625.64)" d="m0 800h1300v-800h-1300z"/>
</clipPath>
<clipPath id="clipPath126">
<path transform="translate(-545.01 -513.16)" d="m0 800h1300v-800h-1300z"/>
</clipPath>
<clipPath id="clipPath128">
<path transform="translate(-538.22 -522.12)" d="m0 800h1300v-800h-1300z"/>
</clipPath>
<clipPath id="clipPath130">
<path transform="translate(-568.91 -564.15)" d="m0 800h1300v-800h-1300z"/>
</clipPath>
<clipPath id="clipPath132">
<path transform="translate(-570.46 -559.65)" d="m0 800h1300v-800h-1300z"/>
</clipPath>
<clipPath id="clipPath134">
<path transform="translate(-572.96 -569.58)" d="m0 800h1300v-800h-1300z"/>
</clipPath>
<clipPath id="clipPath136">
<path transform="translate(-618.67 -609.88)" d="m0 800h1300v-800h-1300z"/>
</clipPath>
<clipPath id="clipPath138">
<path transform="translate(-507.61 -424.99)" d="m0 800h1300v-800h-1300z"/>
</clipPath>
<clipPath id="clipPath140">
<path transform="translate(-512.67 -432.79)" d="m0 800h1300v-800h-1300z"/>
</clipPath>
<clipPath id="clipPath142">
<path transform="translate(-546.94 -455.97)" d="m0 800h1300v-800h-1300z"/>
</clipPath>
<clipPath id="clipPath144">
<path transform="translate(-587.82 -537.71)" d="m0 800h1300v-800h-1300z"/>
</clipPath>
<clipPath id="clipPath146">
<path transform="translate(-547.56 -476.15)" d="m0 800h1300v-800h-1300z"/>
</clipPath>
<clipPath id="clipPath148">
<path transform="translate(-547.56 -476.15)" d="m0 800h1300v-800h-1300z"/>
</clipPath>
<clipPath id="clipPath150">
<path transform="translate(-587.82 -537.71)" d="m0 800h1300v-800h-1300z"/>
</clipPath>
<clipPath id="clipPath152">
<path transform="translate(-622.59 -590.54)" d="m0 800h1300v-800h-1300z"/>
</clipPath>
<clipPath id="clipPath154">
<path transform="translate(-591.02 -588.08)" d="m0 800h1300v-800h-1300z"/>
</clipPath>
<clipPath id="clipPath156">
<path transform="translate(-586.77 -506.75)" d="m0 800h1300v-800h-1300z"/>
</clipPath>
<clipPath id="clipPath158">
<path transform="translate(-683.19 -596.29)" d="m0 800h1300v-800h-1300z"/>
</clipPath>
<clipPath id="clipPath160">
<path transform="translate(-703.46 -656.29)" d="m0 800h1300v-800h-1300z"/>
</clipPath>
<clipPath id="clipPath162">
<path transform="translate(-622.59 -590.54)" d="m0 800h1300v-800h-1300z"/>
</clipPath>
<clipPath id="clipPath164">
<path transform="translate(-623.51 -545.68)" d="m0 800h1300v-800h-1300z"/>
</clipPath>
<clipPath id="clipPath166">
<path transform="translate(-647 -602.26)" d="m0 800h1300v-800h-1300z"/>
</clipPath>
<clipPath id="clipPath168">
<path transform="translate(-643.69 -564.4)" d="m0 800h1300v-800h-1300z"/>
</clipPath>
<clipPath id="clipPath170">
<path transform="translate(-658.94 -612.64)" d="m0 800h1300v-800h-1300z"/>
</clipPath>
<clipPath id="clipPath172">
<path transform="translate(-689.11 -645.61)" d="m0 800h1300v-800h-1300z"/>
</clipPath>
<clipPath id="clipPath174">
<path transform="translate(-662.69 -615.91)" d="m0 800h1300v-800h-1300z"/>
</clipPath>
<clipPath id="clipPath176">
<path transform="translate(-758.33 -640.5)" d="m0 800h1300v-800h-1300z"/>
</clipPath>
<clipPath id="clipPath178">
<path transform="translate(-757.33 -639.83)" d="m0 800h1300v-800h-1300z"/>
</clipPath>
</defs>
<g transform="matrix(1.17 0 0 1.17 53.716 55.48)">
<g>
<path transform="matrix(.35278 0 0 -.35278 122.67 16.642)" d="m0 0c-8.76 0.689-17.162 0.842-25.227 0.491l-19.406-50.386z" clip-path="url(#clipPath3)" fill="#ef3941"/>
<path transform="matrix(.35278 0 0 -.35278 122.67 16.642)" d="m0 0-44.633-49.895 22.13-23.387c4.07 3.54 7.811 7.28 11.227 11.215l3.969 20.203c-3.555-0.919-6.205-1.137-6.205-1.137 2.423 1.561 4.725 3.152 6.918 4.769l7.494 38.153c-0.299 0.024-0.602 0.056-0.9 0.079" clip-path="url(#clipPath5)" fill="#f04c3a"/>
<path transform="matrix(.35278 0 0 -.35278 124.43 29.346)" d="m0 0c-3.755-3.128-8.525-4.88-12.283-5.851l-3.968-20.203c6.811 7.845 12.297 16.488 16.251 26.054" clip-path="url(#clipPath7)" fill="#ee3048"/>
<path transform="matrix(.35278 0 0 -.35278 122.99 16.67)" d="m0 0-7.494-38.152c4.485 3.307 8.467 6.737 11.925 10.295l-3.954 27.815c-0.159 0.013-0.319 0.029-0.477 0.042" clip-path="url(#clipPath9)" fill="#ee3048"/>
<path transform="matrix(.35278 0 0 -.35278 123.16 16.684)" d="m0 0 3.954-27.815c4.863 5.003 8.662 10.267 11.272 15.82l-13.62 11.853c-0.537 0.049-1.072 0.097-1.606 0.142" clip-path="url(#clipPath11)" fill="#ee2150"/>
<path transform="matrix(.35278 0 0 -.35278 128.53 20.916)" d="m0 0c1.483 3.156 2.605 6.4 3.294 9.75-5.782 0.917-11.408 1.6-16.914 2.103z" clip-path="url(#clipPath13)" fill="#ed1b52"/>
<path transform="matrix(.35278 0 0 -.35278 100.17 18.678)" d="m 0,0 -3.764,-42.488 c 6.671,3.874 13.421,7.596 20.243,11.183 L 9.388,2.453 C 6.196,1.729 3.064,0.916 0,0" clip-path="url(#clipPath15)" fill="#ee2d5f"/>
<path transform="matrix(.35278 0 0 -.35278 113.77 16.468)" d="m0 0c-10.279-0.447-20.001-1.729-29.189-3.81l7.091-33.758c2.807 1.476 5.62 2.939 8.452 4.367-2.781-1.681-5.547-3.379-8.3-5.093l2.54-12.092z" clip-path="url(#clipPath17)" fill="#ee304b"/>
<path transform="matrix(.35278 0 0 -.35278 97.611 19.521)" d="m 0,0 -14.627,-51.093 c 5.972,3.784 12.005,7.453 18.104,10.996 L 7.241,2.39 C 4.785,1.656 2.374,0.856 0,0" clip-path="url(#clipPath19)" fill="#ee276f"/>
<path transform="matrix(.35278 0 0 -.35278 44.11 86.596)" d="m0 0-11.779 2.12c-5.838-7.487-11.523-15.166-17.067-23.019l10.663-31.385z" clip-path="url(#clipPath21)" fill="#335da4"/>
<path transform="matrix(.35278 0 0 -.35278 103.29 53.381)" d="m0 0-0.565 0.952c-6.423-1.582-12.664-2.966-18.736-4.165l-2.923-24.282c7.851 8.107 15.154 17.255 22.224 27.495" clip-path="url(#clipPath23)" fill="#f58135"/>
<path transform="matrix(.35278 0 0 -.35278 96.803 51.876)" d="m0 0c4.428 1.589 8.722 3.266 12.886 5.029l-10.209 17.208z" clip-path="url(#clipPath25)" fill="#f58135"/>
<path transform="matrix(.35278 0 0 -.35278 103.61 52.921)" d="m0 0c-0.497-0.124-0.977-0.229-1.472-0.351l0.565-0.953c0.302 0.437 0.606 0.863 0.907 1.304" clip-path="url(#clipPath27)" fill="#f26b3d"/>
<path transform="matrix(.35278 0 0 -.35278 97.747 44.031)" d="m0 0 10.209-17.209c4.108 1.739 8.091 3.56 11.926 5.478l5.3 41.356z" clip-path="url(#clipPath29)" fill="#f26b3d"/>
<path transform="matrix(.35278 0 0 -.35278 105.56 48.169)" d="m0 0c9.883 4.943 18.842 10.497 26.733 16.757l-21.433 24.598z" clip-path="url(#clipPath31)" fill="#f26432"/>
<path transform="matrix(.35278 0 0 -.35278 68.846 88.05)" d="m0 0c1.861 1.027 3.684 2.099 5.469 3.213l-5.193 6.56z" clip-path="url(#clipPath33)" fill="#74c9ba"/>
<path transform="matrix(.35278 0 0 -.35278 107.43 33.58)" d="m0 0-2.058 12.321c-7.265-4.078-14.429-8.283-21.509-12.591l-3.868-29.355z" clip-path="url(#clipPath35)" fill="#ee2d5f"/>
<path transform="matrix(.35278 0 0 -.35278 63.976 72.085)" d="m0 0 7.244-18.253c4.524 0.968 8.872 2.05 13.073 3.235l19.505 64.01z" clip-path="url(#clipPath37)" fill="#af92b2"/>
<path transform="matrix(.35278 0 0 -.35278 70.433 79.713)" d="m0 0c-3.192-0.3-6.354-0.542-9.431-0.733l5.209-13.124z" clip-path="url(#clipPath39)" fill="#af92b2"/>
<path transform="matrix(.35278 0 0 -.35278 67.028 88.995)" d="m0 0c1.749 0.857 3.467 1.75 5.152 2.68l0.276 9.773z" clip-path="url(#clipPath41)" fill="#3cc1c9"/>
<path transform="matrix(.35278 0 0 -.35278 73.033 79.432)" d="m0 0c-2.455-0.306-4.919-0.569-7.371-0.799l-4.222-13.857z" clip-path="url(#clipPath43)" fill="#dd9c8c"/>
<path transform="matrix(.35278 0 0 -.35278 71.143 77.383)" d="m0 0c4.641 1.309 9.096 2.752 13.376 4.33l31.205 39.451-19.087 15.398c-0.093-3e-3 -0.189-0.011-0.282-0.013 0.079 0.016 0.156 0.034 0.235 0.051l-5.942 4.793z" clip-path="url(#clipPath45)" fill="#dd9c8c"/>
<path transform="matrix(.35278 0 0 -.35278 75.862 75.855)" d="m0 0c8.376 3.09 16.099 6.701 23.294 10.852l7.911 28.599z" clip-path="url(#clipPath47)" fill="#d4c986"/>
<path transform="matrix(.35278 0 0 -.35278 70.775 86.916)" d="m0 0c11.167 6.97 20.88 15.6 29.266 25.744-6.814-2.07-14.772-3.517-22.865-4.527l-11.593-14.656z" clip-path="url(#clipPath49)" fill="#d4c986"/>
<path transform="matrix(.35278 0 0 -.35278 84.08 72.027)" d="m0 0c7.5 4.326 14.436 9.235 20.947 14.756l-13.036 13.843z" clip-path="url(#clipPath51)" fill="#fdbb52"/>
<path transform="matrix(.35278 0 0 -.35278 91.469 66.821)" d="m0 0c3.906 3.312 7.659 6.85 11.295 10.605l2.923 24.281c-5.537-1.094-10.937-2.039-16.184-2.818l-11.07-18.225z" clip-path="url(#clipPath53)" fill="#f79151"/>
<path transform="matrix(.35278 0 0 -.35278 92.02 53.46)" d="m0 0c4.64 1.417 9.161 2.912 13.557 4.49l2.677 22.237z" clip-path="url(#clipPath55)" fill="#f79151"/>
<path transform="matrix(.35278 0 0 -.35278 58.759 64.817)" d="m0 0c-1.565-1.53-3.113-3.083-4.663-4.633l-11.094-75.153 18.644 36.125c-7.075-0.048-11.634 0.108-11.634 0.108 4.277 0.426 8.426 0.92 12.454 1.482l11.08 21.469z" clip-path="url(#clipPath57)" fill="#7d78b8"/>
<path transform="matrix(.35278 0 0 -.35278 60.067 79.659)" d="m0 0c6.408 0.894 12.5 1.97 18.324 3.216l-7.244 18.253z" clip-path="url(#clipPath59)" fill="#5a9aca"/>
<path transform="matrix(.35278 0 0 -.35278 68.943 84.602)" d="m0 0-5.208 13.124c-7.851-0.489-15.117-0.662-20.774-0.701l-18.644-36.125z" clip-path="url(#clipPath61)" fill="#5a9aca"/>
<path transform="matrix(.35278 0 0 -.35278 53.149 93.258)" d="m0 0c0.232 0.036 0.455 0.081 0.686 0.118l-0.539 0.716z" clip-path="url(#clipPath63)" fill="#01b2d3"/>
<path transform="matrix(.35278 0 0 -.35278 56.993 98.001)" d="m0 0-8.576 11.39c-0.917 0.071-1.804 0.143-2.645 0.216l-3.698-20.945c4.97 2.658 9.943 5.769 14.919 9.339" clip-path="url(#clipPath65)" fill="#01b2d3"/>
<path transform="matrix(.35278 0 0 -.35278 62.151 93.846)" d="m0 0c-4.08-1.484-14.923-1.023-23.196-0.388l8.575-11.39c4.871 3.494 9.745 7.413 14.621 11.778" clip-path="url(#clipPath67)" fill="#0ebad0"/>
<path transform="matrix(.35278 0 0 -.35278 53.201 92.964)" d="m0 0 0.539-0.716c14.367 2.298 27.199 6.348 38.658 11.965l5.429 12.453z" clip-path="url(#clipPath69)" fill="#0ebad0"/>
<path transform="matrix(.35278 0 0 -.35278 52.736 93.325)" d="m0 0c0.394 0.058 0.777 0.13 1.169 0.191l0.147 0.834z" clip-path="url(#clipPath71)" fill="#018fbc"/>
<path transform="matrix(.35278 0 0 -.35278 38.008 105.34)" d="m0 0c12.946 0.697 25.911 4.533 38.895 11.477l3.698 20.945c-0.947 0.081-1.835 0.162-2.652 0.239l-40.827-31.8z" clip-path="url(#clipPath73)" fill="#018fbc"/>
<path transform="matrix(.35278 0 0 -.35278 44.11 86.596)" d="m0 0-18.183-52.284 40.827 31.801c-3.069 0.29-5.093 0.527-5.093 0.527 2.34 0.249 4.638 0.546 6.901 0.881l1.316 1.025z" clip-path="url(#clipPath75)" fill="#067cb5"/>
<path transform="matrix(.35278 0 0 -.35278 53.201 92.964)" d="m0 0 11.094 75.154c-3.23-3.228-6.437-6.485-9.601-9.796l-27.261-47.308z" clip-path="url(#clipPath77)" fill="#5c73b7"/>
<path transform="matrix(.35278 0 0 -.35278 27.322 103.9)" d="m0 0c1.691-0.551 3.383-1.035 5.075-1.478l0.783 10.645c-1.973-3.03-3.927-6.084-5.858-9.167" clip-path="url(#clipPath79)" fill="#42378b"/>
<path transform="matrix(.35278 0 0 -.35278 33.934 93.969)" d="m0 0c-4.385-6.212-8.686-12.53-12.883-18.976l-0.784-10.645c7.795-2.042 15.596-2.942 23.405-2.698l0.925 0.934z" clip-path="url(#clipPath81)" fill="#32559b"/>
<path transform="matrix(.35278 0 0 -.35278 44.608 80.096)" d="m0 0c-4.474-5.339-8.873-10.771-13.19-16.306l11.779-2.12z" clip-path="url(#clipPath83)" fill="#634c9f"/>
<path transform="matrix(.35278 0 0 -.35278 53.727 69.907)" d="m0 0c-8.884-9.295-17.502-18.921-25.85-28.882l-1.411-18.426z" clip-path="url(#clipPath85)" fill="#7952a1"/>
<path transform="matrix(.35278 0 0 -.35278 91.456 39.718)" d="m0 0-1.301 2.513c-10.472-6.958-20.728-14.186-30.746-21.71l-6.029-23.558z" clip-path="url(#clipPath87)" fill="#e65d8d"/>
<path transform="matrix(.35278 0 0 -.35278 78.024 54.801)" d="m0 0 5.942-4.794c8.087 1.712 15.922 3.59 23.485 5.647l8.649 41.902z" clip-path="url(#clipPath89)" fill="#f48177"/>
<path transform="matrix(.35278 0 0 -.35278 88.123 55.871)" d="m0 0c-7.886-0.969-15.43-1.567-22.636-1.798l19.087-15.397z" clip-path="url(#clipPath91)" fill="#f48177"/>
<path transform="matrix(.35278 0 0 -.35278 91.967 38.19)" d="m0 0c-0.918-0.604-1.833-1.211-2.747-1.819l1.3-2.513z" clip-path="url(#clipPath93)" fill="#de1e7d"/>
<path transform="matrix(.35278 0 0 -.35278 90.776 55.508)" d="m0 0c-2.538-0.377-5.051-0.726-7.521-1.03l-3.549-17.195z" clip-path="url(#clipPath95)" fill="#f37863"/>
<path transform="matrix(.35278 0 0 -.35278 91.456 39.718)" d="m0 0-8.648-41.902c3.474 0.944 6.892 1.927 10.246 2.951l16.234 26.727z" clip-path="url(#clipPath97)" fill="#f37863"/>
<path transform="matrix(.35278 0 0 -.35278 97.747 44.031)" d="m0 0 3.868 29.355c-6.837-4.159-13.593-8.42-20.253-12.799l-1.447-4.332z" clip-path="url(#clipPath99)" fill="#ee276f"/>
<path transform="matrix(.35278 0 0 -.35278 65.782 58.263)" d="m0 0c-6.761-6.037-13.404-12.219-19.908-18.576l14.787-20.602z" clip-path="url(#clipPath101)" fill="#9960a7"/>
<path transform="matrix(.35278 0 0 -.35278 78.024 54.801)" d="m0 0-8.67 12.169c-8.874-7.082-17.55-14.411-26.031-21.983l-5.121-39.178z" clip-path="url(#clipPath103)" fill="#b06dad"/>
<path transform="matrix(.35278 0 0 -.35278 80.151 46.491)" d="m0 0c-4.958-3.723-9.854-7.523-14.698-11.389l8.67-12.169z" clip-path="url(#clipPath105)" fill="#ba5ba3"/>
<path transform="matrix(.35278 0 0 -.35278 84.966 26.479)" d="m0 0c-1.576-1.228-3.124-2.499-4.65-3.802l3.718-3.481z" clip-path="url(#clipPath107)" fill="#a32c91"/>
<path transform="matrix(.35278 0 0 -.35278 35.108 92.041)" d="m0 0c2.674 3.654 5.37 7.268 8.09 10.837l-12.954 1.755z" clip-path="url(#clipPath109)" fill="#335da4"/>
<path transform="matrix(.35278 0 0 -.35278 15.94 110.48)" d="m0 0-15.094-24.338 18.184-3.572c1.83 3.279 3.68 6.519 5.537 9.747l0.496 31.3z" clip-path="url(#clipPath111)" fill="#402973"/>
<path transform="matrix(.35278 0 0 -.35278 19.158 105.85)" d="m0 0-0.496-31.301c2.484 4.317 4.986 8.6 7.52 12.823l-6.633 19.042z" clip-path="url(#clipPath113)" fill="#332f81"/>
</g>
<g transform="matrix(.26458 0 0 .26458 -159.78 -26.646)" clip-path="url(#clipPath116)" opacity=".7">
<path transform="matrix(1.3333 0 0 -1.3333 641.88 550.31)" d="m0 0 1.59-0.312 15.094 24.338z" clip-path="url(#clipPath114)" fill="#402772"/>
</g>
<g>
<path transform="matrix(.35278 0 0 -.35278 30.743 81.36)" d="m0 0c-0.542-2.503-1.067-5.031-1.554-7.613-0.754 0.239-0.938 6.3-0.892 13.374l-5.778 13.608c-11.023-16.232-18.551-32.403-21.104-48.485l36.838 11.429z" clip-path="url(#clipPath118)" fill="#522c88"/>
<path transform="matrix(.35278 0 0 -.35278 20.397 91.631)" d="m0 0c-1.696-10.686-1.197-21.333 1.947-31.933l34.891 43.362z" clip-path="url(#clipPath120)" fill="#462a7a"/>
<path transform="matrix(.35278 0 0 -.35278 88.388 24.051)" d="m0 0c-3.336-2.14-6.565-4.44-9.699-6.881l-0.932-7.283z" clip-path="url(#clipPath122)" fill="#c11987"/>
<path transform="matrix(.35278 0 0 -.35278 65.268 34.865)" d="m0 0c-6.734-4.542-13.192-9.701-19.247-15.759l3.912-19.34z" clip-path="url(#clipPath124)" fill="#9d459a"/>
<path transform="matrix(.35278 0 0 -.35278 32.492 74.545)" d="m0 0c-1.844-6.163-3.504-12.592-4.959-19.319l7.51-17.686z" clip-path="url(#clipPath126)" fill="#582d90"/>
<path transform="matrix(.35278 0 0 -.35278 30.094 71.382)" d="m 0,0 c -2.241,-2.974 -4.37,-5.945 -6.386,-8.915 l 5.778,-13.608 C -0.543,-12.317 0,0 0,0" clip-path="url(#clipPath128)" fill="#582d90"/>
<path transform="matrix(.35278 0 0 -.35278 40.923 56.557)" d="m0 0c-0.735-1.038-1.438-2.122-2.152-3.191l3.704-1.312z" clip-path="url(#clipPath130)" fill="#643a96"/>
<path transform="matrix(.35278 0 0 -.35278 41.471 58.145)" d="m0 0-3.704 1.312c-8.969-13.44-16.228-29.358-21.747-47.799l2.551-37.006z" clip-path="url(#clipPath132)" fill="#653b97"/>
<path transform="matrix(.35278 0 0 -.35278 42.353 54.642)" d="m0 0c-1.386-1.758-2.736-3.568-4.052-5.427l1.552-4.502z" clip-path="url(#clipPath134)" fill="#6e3d98"/>
<path transform="matrix(.35278 0 0 -.35278 58.478 40.424)" d="m0 0c-2.257-2.259-4.46-4.64-6.599-7.162l10.512-12.178z" clip-path="url(#clipPath136)" fill="#8e3f98"/>
<path transform="matrix(.35278 0 0 -.35278 19.297 105.65)" d="m0 0 6.632-19.042c1.749 2.916 3.518 5.793 5.29 8.664l-11.622 10.809z" clip-path="url(#clipPath138)" fill="#2f3885"/>
<path transform="matrix(.35278 0 0 -.35278 21.083 102.9)" d="m0 0c0.036-0.12 0.065-0.24 0.101-0.361l-4.866-7.008 11.622-10.809c8.846 14.333 17.983 28.113 27.407 41.352l0.627 20.188z" clip-path="url(#clipPath140)" fill="#42378b"/>
<path transform="matrix(.35278 0 0 -.35278 33.171 94.721)" d="m0 0c1.818 2.555 3.651 5.082 5.491 7.596l-4.864 12.592z" clip-path="url(#clipPath142)" fill="#32559b"/>
<path transform="matrix(.35278 0 0 -.35278 47.594 65.883)" d="m0 0 28.094 0.467c1.56 1.57 3.129 3.123 4.701 4.67l1.969 47.688z" clip-path="url(#clipPath144)" fill="#8a50a0"/>
<path transform="matrix(.35278 0 0 -.35278 33.392 87.599)" d="m0 0 40.257 61.559-17.357 21.934z" clip-path="url(#clipPath146)" fill="#6f449b"/>
<path transform="matrix(.35278 0 0 -.35278 33.392 87.599)" d="m0 0 12.954-1.755c8.532 11.198 17.277 21.991 26.25 32.355l1.053 30.959z" clip-path="url(#clipPath148)" fill="#634c9f"/>
<path transform="matrix(.35278 0 0 -.35278 47.594 65.883)" d="m0 0 0.104 22.282c-1.521-4.171-2.951-8.548-4.272-13.167l4.324 24.202 0.068 14.463c-5.406-4.757-10.449-10.04-15.082-15.917l-2.5-9.929z" clip-path="url(#clipPath150)" fill="#7a449a"/>
<path transform="matrix(.35278 0 0 -.35278 59.858 47.247)" d="m0 0-10.512 12.178c-9.442-11.128-17.67-24.968-24.147-42.722l-0.105-22.281z" clip-path="url(#clipPath152)" fill="#8a499c"/>
<path transform="matrix(.35278 0 0 -.35278 48.724 48.115)" d="m0 0c-1.013-0.832-1.99-1.717-2.978-2.586l-0.068-14.463z" clip-path="url(#clipPath154)" fill="#8a499c"/>
<path transform="matrix(.35278 0 0 -.35278 47.222 76.804)" d="m0 0c9.471 10.939 19.191 21.407 29.148 31.426l-28.094-0.467z" clip-path="url(#clipPath156)" fill="#7952a1"/>
<path transform="matrix(.35278 0 0 -.35278 81.236 45.218)" d="m0 0c8.41 6.189 16.96 12.115 25.647 17.781l-16.005 28.056z" clip-path="url(#clipPath158)" fill="#e65d8d"/>
<path transform="matrix(.35278 0 0 -.35278 88.388 24.051)" d="M 0,0 -10.631,-14.164 5.375,-42.22 c 2.043,1.333 4.085,2.665 6.143,3.969 L 26.145,12.842 C 16.817,9.479 8.103,5.197 0,0" clip-path="url(#clipPath160)" fill="#de1e7d"/>
<path transform="matrix(.35278 0 0 -.35278 59.858 47.247)" d="m0 0-1.969-47.688c0.963 0.947 1.927 1.893 2.895 2.833l23.489 56.573z" clip-path="url(#clipPath162)" fill="#9555a2"/>
<path transform="matrix(.35278 0 0 -.35278 60.185 63.071)" d="m0 0c6.623 6.432 13.345 12.677 20.176 18.716l3.313 37.858z" clip-path="url(#clipPath164)" fill="#9960a7"/>
<path transform="matrix(.35278 0 0 -.35278 68.471 43.113)" d="m0 0 3.042 18.184c-5.433-6.085-10.291-12.193-14.454-18.327 1.22 9.855 5.274 19.502 11.079 29.018-2.961-1.73-5.878-3.559-8.747-5.494l-15.335-35.099z" clip-path="url(#clipPath166)" fill="#9c4c9d"/>
<path transform="matrix(.35278 0 0 -.35278 67.302 56.468)" d="m0 0c6.49 5.737 13.08 11.284 19.755 16.67l-16.442 21.187z" clip-path="url(#clipPath168)" fill="#b06dad"/>
<path transform="matrix(.35278 0 0 -.35278 72.682 39.45)" d="m0 0c4.059 11.927 11.761 24.538 22.052 37.635-11.538-9.898-22.02-19.836-30.946-29.835l-3.042-18.184z" clip-path="url(#clipPath170)" fill="#9c499c"/>
<path transform="matrix(.35278 0 0 -.35278 83.326 27.82)" d="m0 0c-9.82-8.383-18.605-18.317-26.42-29.702l30.139 26.22z" clip-path="url(#clipPath172)" fill="#9c499c"/>
<path transform="matrix(.35278 0 0 -.35278 74.006 38.298)" d="m0 0c-1.767-2.574-3.498-5.202-5.167-7.924 0.405 1.54 0.881 3.094 1.414 4.659l-11.936-10.384 16.442-21.188c6.494 5.238 13.075 10.312 19.744 15.22l9.641 45.837z" clip-path="url(#clipPath174)" fill="#ba5ba3"/>
<path transform="matrix(.35278 0 0 -.35278 107.75 29.622)" d="m0 0c3.224 0 3.224 5 0 5s-3.224-5 0-5" clip-path="url(#clipPath176)" fill="#ef3a41"/>
<path transform="matrix(.35278 0 0 -.35278 107.39 29.857)" d="m0 0c3.224 0 3.224 5 0 5s-3.224-5 0-5" clip-path="url(#clipPath178)" fill="#ef3a41"/>
</g>
</g>
</svg>
